<mxfile host="Electron" modified="2024-05-04T13:20:13.088Z" agent="Mozilla/5.0 (Windows NT 10.0; Win64; x64) AppleWebKit/537.36 (KHTML, like Gecko) draw.io/22.0.3 Chrome/114.0.5735.289 Electron/25.8.4 Safari/537.36" etag="6l4uwD36OywniVZvwlUq" version="22.0.3" type="device" pages="2">
  <diagram id="C5RBs43oDa-KdzZeNtuy" name="Page-1">
    <mxGraphModel dx="995" dy="1036" grid="0" gridSize="10" guides="1" tooltips="1" connect="1" arrows="1" fold="1" page="0" pageScale="1" pageWidth="827" pageHeight="1169" math="0" shadow="0">
      <root>
        <mxCell id="WIyWlLk6GJQsqaUBKTNV-0" />
        <mxCell id="WIyWlLk6GJQsqaUBKTNV-1" parent="WIyWlLk6GJQsqaUBKTNV-0" />
        <mxCell id="zkfFHV4jXpPFQw0GAbJ--0" value="Argument" style="swimlane;fontStyle=2;align=center;verticalAlign=top;childLayout=stackLayout;horizontal=1;startSize=26;horizontalStack=0;resizeParent=1;resizeLast=0;collapsible=1;marginBottom=0;rounded=0;shadow=0;strokeWidth=1;" parent="WIyWlLk6GJQsqaUBKTNV-1" vertex="1">
          <mxGeometry x="204.5" y="120" width="191" height="138" as="geometry">
            <mxRectangle x="230" y="140" width="160" height="26" as="alternateBounds" />
          </mxGeometry>
        </mxCell>
        <mxCell id="zkfFHV4jXpPFQw0GAbJ--4" value="" style="line;html=1;strokeWidth=1;align=left;verticalAlign=middle;spacingTop=-1;spacingLeft=3;spacingRight=3;rotatable=0;labelPosition=right;points=[];portConstraint=eastwest;" parent="zkfFHV4jXpPFQw0GAbJ--0" vertex="1">
          <mxGeometry y="26" width="191" height="8" as="geometry" />
        </mxCell>
        <mxCell id="zkfFHV4jXpPFQw0GAbJ--5" value="bool: validArgument(userInput)" style="text;align=left;verticalAlign=top;spacingLeft=4;spacingRight=4;overflow=hidden;rotatable=0;points=[[0,0.5],[1,0.5]];portConstraint=eastwest;" parent="zkfFHV4jXpPFQw0GAbJ--0" vertex="1">
          <mxGeometry y="34" width="191" height="26" as="geometry" />
        </mxCell>
        <mxCell id="KZspoTboLy19uUvOe4ap-44" value="String: convertToBin(userInput)" style="text;align=left;verticalAlign=top;spacingLeft=4;spacingRight=4;overflow=hidden;rotatable=0;points=[[0,0.5],[1,0.5]];portConstraint=eastwest;rounded=0;shadow=0;html=0;" vertex="1" parent="zkfFHV4jXpPFQw0GAbJ--0">
          <mxGeometry y="60" width="191" height="26" as="geometry" />
        </mxCell>
        <mxCell id="zkfFHV4jXpPFQw0GAbJ--6" value="FixedArg" style="swimlane;fontStyle=0;align=center;verticalAlign=top;childLayout=stackLayout;horizontal=1;startSize=26;horizontalStack=0;resizeParent=1;resizeLast=0;collapsible=1;marginBottom=0;rounded=0;shadow=0;strokeWidth=1;" parent="WIyWlLk6GJQsqaUBKTNV-1" vertex="1">
          <mxGeometry x="-158" y="351" width="160" height="120" as="geometry">
            <mxRectangle x="8" y="360" width="110" height="26" as="alternateBounds" />
          </mxGeometry>
        </mxCell>
        <mxCell id="zkfFHV4jXpPFQw0GAbJ--7" value="String: argument" style="text;align=left;verticalAlign=top;spacingLeft=4;spacingRight=4;overflow=hidden;rotatable=0;points=[[0,0.5],[1,0.5]];portConstraint=eastwest;" parent="zkfFHV4jXpPFQw0GAbJ--6" vertex="1">
          <mxGeometry y="26" width="160" height="26" as="geometry" />
        </mxCell>
        <mxCell id="zkfFHV4jXpPFQw0GAbJ--9" value="" style="line;html=1;strokeWidth=1;align=left;verticalAlign=middle;spacingTop=-1;spacingLeft=3;spacingRight=3;rotatable=0;labelPosition=right;points=[];portConstraint=eastwest;" parent="zkfFHV4jXpPFQw0GAbJ--6" vertex="1">
          <mxGeometry y="52" width="160" height="8" as="geometry" />
        </mxCell>
        <mxCell id="zkfFHV4jXpPFQw0GAbJ--13" value="NZPArg" style="swimlane;fontStyle=0;align=center;verticalAlign=top;childLayout=stackLayout;horizontal=1;startSize=26;horizontalStack=0;resizeParent=1;resizeLast=0;collapsible=1;marginBottom=0;rounded=0;shadow=0;strokeWidth=1;" parent="WIyWlLk6GJQsqaUBKTNV-1" vertex="1">
          <mxGeometry x="598" y="351" width="160" height="120" as="geometry">
            <mxRectangle x="482" y="360" width="110" height="26" as="alternateBounds" />
          </mxGeometry>
        </mxCell>
        <mxCell id="zkfFHV4jXpPFQw0GAbJ--15" value="" style="line;html=1;strokeWidth=1;align=left;verticalAlign=middle;spacingTop=-1;spacingLeft=3;spacingRight=3;rotatable=0;labelPosition=right;points=[];portConstraint=eastwest;" parent="zkfFHV4jXpPFQw0GAbJ--13" vertex="1">
          <mxGeometry y="26" width="160" height="8" as="geometry" />
        </mxCell>
        <mxCell id="zkfFHV4jXpPFQw0GAbJ--16" value="" style="endArrow=block;endSize=10;endFill=0;shadow=0;strokeWidth=1;rounded=0;edgeStyle=elbowEdgeStyle;elbow=vertical;" parent="WIyWlLk6GJQsqaUBKTNV-1" source="KZspoTboLy19uUvOe4ap-24" target="zkfFHV4jXpPFQw0GAbJ--0" edge="1">
          <mxGeometry width="160" relative="1" as="geometry">
            <mxPoint x="210" y="373" as="sourcePoint" />
            <mxPoint x="310" y="271" as="targetPoint" />
          </mxGeometry>
        </mxCell>
        <mxCell id="zkfFHV4jXpPFQw0GAbJ--17" value="Instruction" style="swimlane;fontStyle=0;align=center;verticalAlign=top;childLayout=stackLayout;horizontal=1;startSize=26;horizontalStack=0;resizeParent=1;resizeLast=0;collapsible=1;marginBottom=0;rounded=0;shadow=0;strokeWidth=1;" parent="WIyWlLk6GJQsqaUBKTNV-1" vertex="1">
          <mxGeometry x="848" y="122" width="277" height="320" as="geometry">
            <mxRectangle x="550" y="140" width="160" height="26" as="alternateBounds" />
          </mxGeometry>
        </mxCell>
        <mxCell id="zkfFHV4jXpPFQw0GAbJ--18" value="int: numOfCodeBits" style="text;align=left;verticalAlign=top;spacingLeft=4;spacingRight=4;overflow=hidden;rotatable=0;points=[[0,0.5],[1,0.5]];portConstraint=eastwest;" parent="zkfFHV4jXpPFQw0GAbJ--17" vertex="1">
          <mxGeometry y="26" width="277" height="26" as="geometry" />
        </mxCell>
        <mxCell id="zkfFHV4jXpPFQw0GAbJ--19" value="String: instructionName" style="text;align=left;verticalAlign=top;spacingLeft=4;spacingRight=4;overflow=hidden;rotatable=0;points=[[0,0.5],[1,0.5]];portConstraint=eastwest;rounded=0;shadow=0;html=0;" parent="zkfFHV4jXpPFQw0GAbJ--17" vertex="1">
          <mxGeometry y="52" width="277" height="26" as="geometry" />
        </mxCell>
        <mxCell id="zkfFHV4jXpPFQw0GAbJ--20" value="int: numRegArgs" style="text;align=left;verticalAlign=top;spacingLeft=4;spacingRight=4;overflow=hidden;rotatable=0;points=[[0,0.5],[1,0.5]];portConstraint=eastwest;rounded=0;shadow=0;html=0;" parent="zkfFHV4jXpPFQw0GAbJ--17" vertex="1">
          <mxGeometry y="78" width="277" height="26" as="geometry" />
        </mxCell>
        <mxCell id="KZspoTboLy19uUvOe4ap-52" value="int: numImmArgs" style="text;align=left;verticalAlign=top;spacingLeft=4;spacingRight=4;overflow=hidden;rotatable=0;points=[[0,0.5],[1,0.5]];portConstraint=eastwest;rounded=0;shadow=0;html=0;" vertex="1" parent="zkfFHV4jXpPFQw0GAbJ--17">
          <mxGeometry y="104" width="277" height="26" as="geometry" />
        </mxCell>
        <mxCell id="KZspoTboLy19uUvOe4ap-54" value="int: numOffArgs" style="text;align=left;verticalAlign=top;spacingLeft=4;spacingRight=4;overflow=hidden;rotatable=0;points=[[0,0.5],[1,0.5]];portConstraint=eastwest;rounded=0;shadow=0;html=0;" vertex="1" parent="zkfFHV4jXpPFQw0GAbJ--17">
          <mxGeometry y="130" width="277" height="26" as="geometry" />
        </mxCell>
        <mxCell id="KZspoTboLy19uUvOe4ap-55" value="int: numNZPArgs" style="text;align=left;verticalAlign=top;spacingLeft=4;spacingRight=4;overflow=hidden;rotatable=0;points=[[0,0.5],[1,0.5]];portConstraint=eastwest;rounded=0;shadow=0;html=0;" vertex="1" parent="zkfFHV4jXpPFQw0GAbJ--17">
          <mxGeometry y="156" width="277" height="26" as="geometry" />
        </mxCell>
        <mxCell id="KZspoTboLy19uUvOe4ap-53" value="int: totalUnFixedArgs" style="text;align=left;verticalAlign=top;spacingLeft=4;spacingRight=4;overflow=hidden;rotatable=0;points=[[0,0.5],[1,0.5]];portConstraint=eastwest;rounded=0;shadow=0;html=0;" vertex="1" parent="zkfFHV4jXpPFQw0GAbJ--17">
          <mxGeometry y="182" width="277" height="26" as="geometry" />
        </mxCell>
        <mxCell id="zkfFHV4jXpPFQw0GAbJ--22" value="Argument [ ]: expectedArgs" style="text;align=left;verticalAlign=top;spacingLeft=4;spacingRight=4;overflow=hidden;rotatable=0;points=[[0,0.5],[1,0.5]];portConstraint=eastwest;rounded=0;shadow=0;html=0;" parent="zkfFHV4jXpPFQw0GAbJ--17" vertex="1">
          <mxGeometry y="208" width="277" height="26" as="geometry" />
        </mxCell>
        <mxCell id="zkfFHV4jXpPFQw0GAbJ--23" value="" style="line;html=1;strokeWidth=1;align=left;verticalAlign=middle;spacingTop=-1;spacingLeft=3;spacingRight=3;rotatable=0;labelPosition=right;points=[];portConstraint=eastwest;" parent="zkfFHV4jXpPFQw0GAbJ--17" vertex="1">
          <mxGeometry y="234" width="277" height="8" as="geometry" />
        </mxCell>
        <mxCell id="zkfFHV4jXpPFQw0GAbJ--24" value="Instruction: addExpectedArgs(Argument [ ] args)" style="text;align=left;verticalAlign=top;spacingLeft=4;spacingRight=4;overflow=hidden;rotatable=0;points=[[0,0.5],[1,0.5]];portConstraint=eastwest;" parent="zkfFHV4jXpPFQw0GAbJ--17" vertex="1">
          <mxGeometry y="242" width="277" height="26" as="geometry" />
        </mxCell>
        <mxCell id="zkfFHV4jXpPFQw0GAbJ--25" value="bool: matches(String argument)" style="text;align=left;verticalAlign=top;spacingLeft=4;spacingRight=4;overflow=hidden;rotatable=0;points=[[0,0.5],[1,0.5]];portConstraint=eastwest;" parent="zkfFHV4jXpPFQw0GAbJ--17" vertex="1">
          <mxGeometry y="268" width="277" height="26" as="geometry" />
        </mxCell>
        <mxCell id="KZspoTboLy19uUvOe4ap-56" value="String: decodeInstruction(String arguments)" style="text;align=left;verticalAlign=top;spacingLeft=4;spacingRight=4;overflow=hidden;rotatable=0;points=[[0,0.5],[1,0.5]];portConstraint=eastwest;" vertex="1" parent="zkfFHV4jXpPFQw0GAbJ--17">
          <mxGeometry y="294" width="277" height="26" as="geometry" />
        </mxCell>
        <mxCell id="zkfFHV4jXpPFQw0GAbJ--26" value="" style="endArrow=diamondThin;shadow=0;strokeWidth=1;rounded=0;endFill=1;edgeStyle=elbowEdgeStyle;elbow=vertical;endSize=30;" parent="WIyWlLk6GJQsqaUBKTNV-1" source="zkfFHV4jXpPFQw0GAbJ--0" target="zkfFHV4jXpPFQw0GAbJ--17" edge="1">
          <mxGeometry x="0.5" y="41" relative="1" as="geometry">
            <mxPoint x="380" y="192" as="sourcePoint" />
            <mxPoint x="540" y="192" as="targetPoint" />
            <mxPoint x="-40" y="32" as="offset" />
          </mxGeometry>
        </mxCell>
        <mxCell id="zkfFHV4jXpPFQw0GAbJ--27" value="1..4" style="resizable=0;align=left;verticalAlign=bottom;labelBackgroundColor=none;fontSize=12;" parent="zkfFHV4jXpPFQw0GAbJ--26" connectable="0" vertex="1">
          <mxGeometry x="-1" relative="1" as="geometry">
            <mxPoint y="4" as="offset" />
          </mxGeometry>
        </mxCell>
        <mxCell id="KZspoTboLy19uUvOe4ap-0" value="OffArg" style="swimlane;fontStyle=0;align=center;verticalAlign=top;childLayout=stackLayout;horizontal=1;startSize=26;horizontalStack=0;resizeParent=1;resizeLast=0;collapsible=1;marginBottom=0;rounded=0;shadow=0;strokeWidth=1;" vertex="1" parent="WIyWlLk6GJQsqaUBKTNV-1">
          <mxGeometry x="220" y="351" width="160" height="120" as="geometry">
            <mxRectangle x="245" y="360" width="110" height="26" as="alternateBounds" />
          </mxGeometry>
        </mxCell>
        <mxCell id="KZspoTboLy19uUvOe4ap-46" value="int: numberOfBits" style="text;align=left;verticalAlign=top;spacingLeft=4;spacingRight=4;overflow=hidden;rotatable=0;points=[[0,0.5],[1,0.5]];portConstraint=eastwest;" vertex="1" parent="KZspoTboLy19uUvOe4ap-0">
          <mxGeometry y="26" width="160" height="26" as="geometry" />
        </mxCell>
        <mxCell id="KZspoTboLy19uUvOe4ap-47" value="int: minValue" style="text;align=left;verticalAlign=top;spacingLeft=4;spacingRight=4;overflow=hidden;rotatable=0;points=[[0,0.5],[1,0.5]];portConstraint=eastwest;rounded=0;shadow=0;html=0;" vertex="1" parent="KZspoTboLy19uUvOe4ap-0">
          <mxGeometry y="52" width="160" height="26" as="geometry" />
        </mxCell>
        <mxCell id="KZspoTboLy19uUvOe4ap-48" value="int: maxValue" style="text;align=left;verticalAlign=top;spacingLeft=4;spacingRight=4;overflow=hidden;rotatable=0;points=[[0,0.5],[1,0.5]];portConstraint=eastwest;rounded=0;shadow=0;html=0;" vertex="1" parent="KZspoTboLy19uUvOe4ap-0">
          <mxGeometry y="78" width="160" height="26" as="geometry" />
        </mxCell>
        <mxCell id="KZspoTboLy19uUvOe4ap-3" value="" style="line;html=1;strokeWidth=1;align=left;verticalAlign=middle;spacingTop=-1;spacingLeft=3;spacingRight=3;rotatable=0;labelPosition=right;points=[];portConstraint=eastwest;" vertex="1" parent="KZspoTboLy19uUvOe4ap-0">
          <mxGeometry y="104" width="160" height="8" as="geometry" />
        </mxCell>
        <mxCell id="KZspoTboLy19uUvOe4ap-6" value="RegArg" style="swimlane;fontStyle=0;align=center;verticalAlign=top;childLayout=stackLayout;horizontal=1;startSize=26;horizontalStack=0;resizeParent=1;resizeLast=0;collapsible=1;marginBottom=0;rounded=0;shadow=0;strokeWidth=1;" vertex="1" parent="WIyWlLk6GJQsqaUBKTNV-1">
          <mxGeometry x="409" y="351" width="160" height="120" as="geometry">
            <mxRectangle x="471" y="538" width="110" height="26" as="alternateBounds" />
          </mxGeometry>
        </mxCell>
        <mxCell id="KZspoTboLy19uUvOe4ap-49" value="int: numberOfBits" style="text;align=left;verticalAlign=top;spacingLeft=4;spacingRight=4;overflow=hidden;rotatable=0;points=[[0,0.5],[1,0.5]];portConstraint=eastwest;" vertex="1" parent="KZspoTboLy19uUvOe4ap-6">
          <mxGeometry y="26" width="160" height="26" as="geometry" />
        </mxCell>
        <mxCell id="KZspoTboLy19uUvOe4ap-51" value="int: maxValue" style="text;align=left;verticalAlign=top;spacingLeft=4;spacingRight=4;overflow=hidden;rotatable=0;points=[[0,0.5],[1,0.5]];portConstraint=eastwest;rounded=0;shadow=0;html=0;" vertex="1" parent="KZspoTboLy19uUvOe4ap-6">
          <mxGeometry y="52" width="160" height="26" as="geometry" />
        </mxCell>
        <mxCell id="KZspoTboLy19uUvOe4ap-50" value="int: minValue" style="text;align=left;verticalAlign=top;spacingLeft=4;spacingRight=4;overflow=hidden;rotatable=0;points=[[0,0.5],[1,0.5]];portConstraint=eastwest;rounded=0;shadow=0;html=0;" vertex="1" parent="KZspoTboLy19uUvOe4ap-6">
          <mxGeometry y="78" width="160" height="26" as="geometry" />
        </mxCell>
        <mxCell id="KZspoTboLy19uUvOe4ap-8" value="" style="line;html=1;strokeWidth=1;align=left;verticalAlign=middle;spacingTop=-1;spacingLeft=3;spacingRight=3;rotatable=0;labelPosition=right;points=[];portConstraint=eastwest;" vertex="1" parent="KZspoTboLy19uUvOe4ap-6">
          <mxGeometry y="104" width="160" height="8" as="geometry" />
        </mxCell>
        <mxCell id="KZspoTboLy19uUvOe4ap-9" value="ImmArg" style="swimlane;fontStyle=0;align=center;verticalAlign=top;childLayout=stackLayout;horizontal=1;startSize=26;horizontalStack=0;resizeParent=1;resizeLast=0;collapsible=1;marginBottom=0;rounded=0;shadow=0;strokeWidth=1;" vertex="1" parent="WIyWlLk6GJQsqaUBKTNV-1">
          <mxGeometry x="30" y="351" width="160" height="120" as="geometry">
            <mxRectangle x="127" y="360" width="110" height="26" as="alternateBounds" />
          </mxGeometry>
        </mxCell>
        <mxCell id="KZspoTboLy19uUvOe4ap-10" value="int: numberOfBits" style="text;align=left;verticalAlign=top;spacingLeft=4;spacingRight=4;overflow=hidden;rotatable=0;points=[[0,0.5],[1,0.5]];portConstraint=eastwest;" vertex="1" parent="KZspoTboLy19uUvOe4ap-9">
          <mxGeometry y="26" width="160" height="26" as="geometry" />
        </mxCell>
        <mxCell id="KZspoTboLy19uUvOe4ap-11" value="int: minValue" style="text;align=left;verticalAlign=top;spacingLeft=4;spacingRight=4;overflow=hidden;rotatable=0;points=[[0,0.5],[1,0.5]];portConstraint=eastwest;rounded=0;shadow=0;html=0;" vertex="1" parent="KZspoTboLy19uUvOe4ap-9">
          <mxGeometry y="52" width="160" height="26" as="geometry" />
        </mxCell>
        <mxCell id="KZspoTboLy19uUvOe4ap-45" value="int: maxValue" style="text;align=left;verticalAlign=top;spacingLeft=4;spacingRight=4;overflow=hidden;rotatable=0;points=[[0,0.5],[1,0.5]];portConstraint=eastwest;rounded=0;shadow=0;html=0;" vertex="1" parent="KZspoTboLy19uUvOe4ap-9">
          <mxGeometry y="78" width="160" height="26" as="geometry" />
        </mxCell>
        <mxCell id="KZspoTboLy19uUvOe4ap-12" value="" style="line;html=1;strokeWidth=1;align=left;verticalAlign=middle;spacingTop=-1;spacingLeft=3;spacingRight=3;rotatable=0;labelPosition=right;points=[];portConstraint=eastwest;" vertex="1" parent="KZspoTboLy19uUvOe4ap-9">
          <mxGeometry y="104" width="160" height="8" as="geometry" />
        </mxCell>
        <mxCell id="KZspoTboLy19uUvOe4ap-23" value="" style="endArrow=none;endSize=10;endFill=0;shadow=0;strokeWidth=1;rounded=0;edgeStyle=elbowEdgeStyle;exitX=0.5;exitY=0;exitDx=0;exitDy=0;" edge="1" parent="WIyWlLk6GJQsqaUBKTNV-1" source="zkfFHV4jXpPFQw0GAbJ--6" target="KZspoTboLy19uUvOe4ap-18">
          <mxGeometry width="160" relative="1" as="geometry">
            <mxPoint x="63" y="360" as="sourcePoint" />
            <mxPoint x="300" y="258" as="targetPoint" />
            <Array as="points">
              <mxPoint x="-78" y="327" />
            </Array>
          </mxGeometry>
        </mxCell>
        <mxCell id="KZspoTboLy19uUvOe4ap-18" value="" style="shape=waypoint;sketch=0;fillStyle=solid;size=6;pointerEvents=1;points=[];fillColor=none;resizable=0;rotatable=0;perimeter=centerPerimeter;snapToPoint=1;strokeColor=none;" vertex="1" parent="WIyWlLk6GJQsqaUBKTNV-1">
          <mxGeometry x="100" y="297" width="20" height="20" as="geometry" />
        </mxCell>
        <mxCell id="KZspoTboLy19uUvOe4ap-29" value="" style="edgeStyle=orthogonalEdgeStyle;rounded=0;orthogonalLoop=1;jettySize=auto;html=1;endArrow=none;endFill=0;" edge="1" parent="WIyWlLk6GJQsqaUBKTNV-1" source="KZspoTboLy19uUvOe4ap-24" target="KZspoTboLy19uUvOe4ap-18">
          <mxGeometry relative="1" as="geometry" />
        </mxCell>
        <mxCell id="KZspoTboLy19uUvOe4ap-24" value="" style="shape=waypoint;sketch=0;fillStyle=solid;size=6;pointerEvents=1;points=[];fillColor=none;resizable=0;rotatable=0;perimeter=centerPerimeter;snapToPoint=1;strokeColor=none;" vertex="1" parent="WIyWlLk6GJQsqaUBKTNV-1">
          <mxGeometry x="290" y="297" width="20" height="20" as="geometry" />
        </mxCell>
        <mxCell id="KZspoTboLy19uUvOe4ap-28" value="" style="edgeStyle=orthogonalEdgeStyle;rounded=0;orthogonalLoop=1;jettySize=auto;html=1;endArrow=none;endFill=0;" edge="1" parent="WIyWlLk6GJQsqaUBKTNV-1" source="KZspoTboLy19uUvOe4ap-27" target="KZspoTboLy19uUvOe4ap-24">
          <mxGeometry relative="1" as="geometry" />
        </mxCell>
        <mxCell id="KZspoTboLy19uUvOe4ap-27" value="" style="shape=waypoint;sketch=0;fillStyle=solid;size=6;pointerEvents=1;points=[];fillColor=none;resizable=0;rotatable=0;perimeter=centerPerimeter;snapToPoint=1;strokeColor=none;" vertex="1" parent="WIyWlLk6GJQsqaUBKTNV-1">
          <mxGeometry x="479" y="297" width="20" height="20" as="geometry" />
        </mxCell>
        <mxCell id="KZspoTboLy19uUvOe4ap-30" style="edgeStyle=orthogonalEdgeStyle;rounded=0;orthogonalLoop=1;jettySize=auto;html=1;exitX=0.5;exitY=0;exitDx=0;exitDy=0;entryX=0.617;entryY=0.957;entryDx=0;entryDy=0;entryPerimeter=0;endArrow=none;endFill=0;" edge="1" parent="WIyWlLk6GJQsqaUBKTNV-1" source="KZspoTboLy19uUvOe4ap-9" target="KZspoTboLy19uUvOe4ap-18">
          <mxGeometry relative="1" as="geometry" />
        </mxCell>
        <mxCell id="KZspoTboLy19uUvOe4ap-31" style="edgeStyle=orthogonalEdgeStyle;rounded=0;orthogonalLoop=1;jettySize=auto;html=1;exitX=0.5;exitY=0;exitDx=0;exitDy=0;entryX=0.562;entryY=0.969;entryDx=0;entryDy=0;entryPerimeter=0;endArrow=none;endFill=0;" edge="1" parent="WIyWlLk6GJQsqaUBKTNV-1" source="KZspoTboLy19uUvOe4ap-0" target="KZspoTboLy19uUvOe4ap-24">
          <mxGeometry relative="1" as="geometry" />
        </mxCell>
        <mxCell id="KZspoTboLy19uUvOe4ap-32" style="edgeStyle=orthogonalEdgeStyle;rounded=0;orthogonalLoop=1;jettySize=auto;html=1;exitX=0.5;exitY=0;exitDx=0;exitDy=0;entryX=0.391;entryY=0.695;entryDx=0;entryDy=0;entryPerimeter=0;endArrow=none;endFill=0;" edge="1" parent="WIyWlLk6GJQsqaUBKTNV-1" source="KZspoTboLy19uUvOe4ap-6" target="KZspoTboLy19uUvOe4ap-27">
          <mxGeometry relative="1" as="geometry" />
        </mxCell>
        <mxCell id="KZspoTboLy19uUvOe4ap-33" style="edgeStyle=orthogonalEdgeStyle;rounded=0;orthogonalLoop=1;jettySize=auto;html=1;exitX=0.5;exitY=0;exitDx=0;exitDy=0;entryX=1.081;entryY=0.488;entryDx=0;entryDy=0;entryPerimeter=0;endArrow=none;endFill=0;" edge="1" parent="WIyWlLk6GJQsqaUBKTNV-1" source="zkfFHV4jXpPFQw0GAbJ--13" target="KZspoTboLy19uUvOe4ap-27">
          <mxGeometry relative="1" as="geometry">
            <Array as="points">
              <mxPoint x="678" y="307" />
            </Array>
          </mxGeometry>
        </mxCell>
        <mxCell id="KZspoTboLy19uUvOe4ap-35" value="Assembler" style="swimlane;fontStyle=2;align=center;verticalAlign=top;childLayout=stackLayout;horizontal=1;startSize=26;horizontalStack=0;resizeParent=1;resizeLast=0;collapsible=1;marginBottom=0;rounded=0;shadow=0;strokeWidth=1;" vertex="1" parent="WIyWlLk6GJQsqaUBKTNV-1">
          <mxGeometry x="848" y="-169" width="277" height="138" as="geometry">
            <mxRectangle x="230" y="140" width="160" height="26" as="alternateBounds" />
          </mxGeometry>
        </mxCell>
        <mxCell id="KZspoTboLy19uUvOe4ap-39" value="" style="line;html=1;strokeWidth=1;align=left;verticalAlign=middle;spacingTop=-1;spacingLeft=3;spacingRight=3;rotatable=0;labelPosition=right;points=[];portConstraint=eastwest;" vertex="1" parent="KZspoTboLy19uUvOe4ap-35">
          <mxGeometry y="26" width="277" height="8" as="geometry" />
        </mxCell>
        <mxCell id="KZspoTboLy19uUvOe4ap-40" value="String: decodeAssemblyInstruction(String input)" style="text;align=left;verticalAlign=top;spacingLeft=4;spacingRight=4;overflow=hidden;rotatable=0;points=[[0,0.5],[1,0.5]];portConstraint=eastwest;" vertex="1" parent="KZspoTboLy19uUvOe4ap-35">
          <mxGeometry y="34" width="277" height="26" as="geometry" />
        </mxCell>
        <mxCell id="KZspoTboLy19uUvOe4ap-57" value="String: convertBinToHex(String binaryCode)" style="text;align=left;verticalAlign=top;spacingLeft=4;spacingRight=4;overflow=hidden;rotatable=0;points=[[0,0.5],[1,0.5]];portConstraint=eastwest;" vertex="1" parent="KZspoTboLy19uUvOe4ap-35">
          <mxGeometry y="60" width="277" height="26" as="geometry" />
        </mxCell>
        <mxCell id="KZspoTboLy19uUvOe4ap-41" style="edgeStyle=orthogonalEdgeStyle;rounded=0;orthogonalLoop=1;jettySize=auto;html=1;exitX=0.5;exitY=0;exitDx=0;exitDy=0;endArrow=diamondThin;endFill=1;endSize=30;entryX=0.5;entryY=1;entryDx=0;entryDy=0;" edge="1" parent="WIyWlLk6GJQsqaUBKTNV-1" source="zkfFHV4jXpPFQw0GAbJ--17" target="KZspoTboLy19uUvOe4ap-35">
          <mxGeometry relative="1" as="geometry">
            <mxPoint x="936" y="-149" as="targetPoint" />
          </mxGeometry>
        </mxCell>
        <mxCell id="KZspoTboLy19uUvOe4ap-43" value="16" style="resizable=0;align=left;verticalAlign=bottom;labelBackgroundColor=none;fontSize=12;" connectable="0" vertex="1" parent="WIyWlLk6GJQsqaUBKTNV-1">
          <mxGeometry x="986.5" y="115.00391304347825" as="geometry" />
        </mxCell>
      </root>
    </mxGraphModel>
  </diagram>
  <diagram id="YIHIBfZA1Ci4M3gJGBoG" name="Page-2">
    <mxGraphModel dx="3143" dy="2432" grid="0" gridSize="10" guides="1" tooltips="1" connect="1" arrows="1" fold="1" page="0" pageScale="1" pageWidth="1100" pageHeight="850" math="0" shadow="0">
      <root>
        <mxCell id="0" />
        <mxCell id="1" parent="0" />
        <mxCell id="iplyKtOMqLFqcfngAsZ6-10" value="" style="edgeStyle=orthogonalEdgeStyle;rounded=0;orthogonalLoop=1;jettySize=auto;html=1;" edge="1" parent="1" source="iplyKtOMqLFqcfngAsZ6-1" target="iplyKtOMqLFqcfngAsZ6-2">
          <mxGeometry relative="1" as="geometry" />
        </mxCell>
        <mxCell id="iplyKtOMqLFqcfngAsZ6-1" value="Start" style="strokeWidth=2;html=1;shape=mxgraph.flowchart.start_1;whiteSpace=wrap;fontFamily=Times New Roman;fontSize=22;" vertex="1" parent="1">
          <mxGeometry x="-338.5" y="-730" width="100" height="60" as="geometry" />
        </mxCell>
        <mxCell id="iplyKtOMqLFqcfngAsZ6-11" value="" style="edgeStyle=orthogonalEdgeStyle;rounded=0;orthogonalLoop=1;jettySize=auto;html=1;" edge="1" parent="1" source="iplyKtOMqLFqcfngAsZ6-2" target="iplyKtOMqLFqcfngAsZ6-3">
          <mxGeometry relative="1" as="geometry" />
        </mxCell>
        <mxCell id="iplyKtOMqLFqcfngAsZ6-2" value="Read Input" style="shape=parallelogram;perimeter=parallelogramPerimeter;whiteSpace=wrap;html=1;dashed=0;fontFamily=Times New Roman;fontSize=22;" vertex="1" parent="1">
          <mxGeometry x="-373" y="-612" width="169" height="51" as="geometry" />
        </mxCell>
        <mxCell id="iplyKtOMqLFqcfngAsZ6-12" value="" style="edgeStyle=orthogonalEdgeStyle;rounded=0;orthogonalLoop=1;jettySize=auto;html=1;" edge="1" parent="1" source="iplyKtOMqLFqcfngAsZ6-3" target="iplyKtOMqLFqcfngAsZ6-4">
          <mxGeometry relative="1" as="geometry" />
        </mxCell>
        <mxCell id="iplyKtOMqLFqcfngAsZ6-3" value="Parse Instruction&lt;br&gt;Parse Arguments" style="html=1;dashed=0;whiteSpace=wrap;fontFamily=Times New Roman;fontSize=22;" vertex="1" parent="1">
          <mxGeometry x="-382" y="-502" width="187" height="50" as="geometry" />
        </mxCell>
        <mxCell id="iplyKtOMqLFqcfngAsZ6-13" value="" style="edgeStyle=orthogonalEdgeStyle;rounded=0;orthogonalLoop=1;jettySize=auto;html=1;" edge="1" parent="1" source="iplyKtOMqLFqcfngAsZ6-4" target="iplyKtOMqLFqcfngAsZ6-7">
          <mxGeometry relative="1" as="geometry" />
        </mxCell>
        <mxCell id="iplyKtOMqLFqcfngAsZ6-29" value="" style="edgeStyle=orthogonalEdgeStyle;rounded=0;orthogonalLoop=1;jettySize=auto;html=1;" edge="1" parent="1" source="iplyKtOMqLFqcfngAsZ6-4" target="iplyKtOMqLFqcfngAsZ6-28">
          <mxGeometry relative="1" as="geometry" />
        </mxCell>
        <mxCell id="iplyKtOMqLFqcfngAsZ6-4" value="Instruction in stored list?" style="strokeWidth=2;html=1;shape=mxgraph.flowchart.decision;whiteSpace=wrap;fontFamily=Times New Roman;fontSize=22;" vertex="1" parent="1">
          <mxGeometry x="-482" y="-393" width="387" height="94" as="geometry" />
        </mxCell>
        <mxCell id="iplyKtOMqLFqcfngAsZ6-14" value="" style="edgeStyle=orthogonalEdgeStyle;rounded=0;orthogonalLoop=1;jettySize=auto;html=1;" edge="1" parent="1" source="iplyKtOMqLFqcfngAsZ6-7" target="iplyKtOMqLFqcfngAsZ6-9">
          <mxGeometry relative="1" as="geometry" />
        </mxCell>
        <mxCell id="iplyKtOMqLFqcfngAsZ6-7" value="Decode Instruction&lt;br&gt;Print Instruction" style="html=1;dashed=0;whiteSpace=wrap;fontFamily=Times New Roman;fontSize=22;" vertex="1" parent="1">
          <mxGeometry x="-395.5" y="-240" width="214" height="50" as="geometry" />
        </mxCell>
        <mxCell id="iplyKtOMqLFqcfngAsZ6-9" value="End" style="strokeWidth=2;html=1;shape=mxgraph.flowchart.terminator;whiteSpace=wrap;fontFamily=Times New Roman;fontSize=22;" vertex="1" parent="1">
          <mxGeometry x="-338.5" y="-131" width="100" height="60" as="geometry" />
        </mxCell>
        <mxCell id="KP4_aEdoyNH2rMj2E8eM-2" value="" style="edgeStyle=orthogonalEdgeStyle;rounded=0;orthogonalLoop=1;jettySize=auto;html=1;" edge="1" parent="1" source="iplyKtOMqLFqcfngAsZ6-16" target="iplyKtOMqLFqcfngAsZ6-20">
          <mxGeometry relative="1" as="geometry" />
        </mxCell>
        <mxCell id="iplyKtOMqLFqcfngAsZ6-16" value="Start" style="strokeWidth=2;html=1;shape=mxgraph.flowchart.start_1;whiteSpace=wrap;fontFamily=Times New Roman;fontSize=22;" vertex="1" parent="1">
          <mxGeometry x="510.5" y="-695" width="100" height="60" as="geometry" />
        </mxCell>
        <mxCell id="iplyKtOMqLFqcfngAsZ6-19" value="" style="edgeStyle=orthogonalEdgeStyle;rounded=0;orthogonalLoop=1;jettySize=auto;html=1;" edge="1" parent="1" source="iplyKtOMqLFqcfngAsZ6-20" target="iplyKtOMqLFqcfngAsZ6-22">
          <mxGeometry relative="1" as="geometry" />
        </mxCell>
        <mxCell id="iplyKtOMqLFqcfngAsZ6-20" value="Parse number of arguments&lt;br&gt;Parse Arguments" style="html=1;dashed=0;whiteSpace=wrap;fontFamily=Times New Roman;fontSize=22;" vertex="1" parent="1">
          <mxGeometry x="416" y="-576" width="289" height="50" as="geometry" />
        </mxCell>
        <mxCell id="iplyKtOMqLFqcfngAsZ6-21" value="" style="edgeStyle=orthogonalEdgeStyle;rounded=0;orthogonalLoop=1;jettySize=auto;html=1;" edge="1" parent="1" source="iplyKtOMqLFqcfngAsZ6-22" target="iplyKtOMqLFqcfngAsZ6-24">
          <mxGeometry relative="1" as="geometry" />
        </mxCell>
        <mxCell id="KP4_aEdoyNH2rMj2E8eM-13" style="edgeStyle=orthogonalEdgeStyle;rounded=0;orthogonalLoop=1;jettySize=auto;html=1;exitX=1;exitY=0.5;exitDx=0;exitDy=0;exitPerimeter=0;entryX=0;entryY=0.5;entryDx=0;entryDy=0;" edge="1" parent="1" source="iplyKtOMqLFqcfngAsZ6-22" target="KP4_aEdoyNH2rMj2E8eM-12">
          <mxGeometry relative="1" as="geometry" />
        </mxCell>
        <mxCell id="iplyKtOMqLFqcfngAsZ6-22" value="Number of Arguments == expected" style="strokeWidth=2;html=1;shape=mxgraph.flowchart.decision;whiteSpace=wrap;fontFamily=Times New Roman;fontSize=22;" vertex="1" parent="1">
          <mxGeometry x="343" y="-465.5" width="435" height="94" as="geometry" />
        </mxCell>
        <mxCell id="iplyKtOMqLFqcfngAsZ6-24" value="DecodedInstruction = InstructionCode" style="html=1;dashed=0;whiteSpace=wrap;fontFamily=Times New Roman;fontSize=22;" vertex="1" parent="1">
          <mxGeometry x="378.38" y="-314" width="364.25" height="50" as="geometry" />
        </mxCell>
        <mxCell id="iplyKtOMqLFqcfngAsZ6-26" value="&lt;font style=&quot;font-size: 22px;&quot; face=&quot;Times New Roman&quot;&gt;Yes&lt;/font&gt;" style="text;html=1;align=center;verticalAlign=middle;resizable=0;points=[];autosize=1;strokeColor=none;fillColor=none;" vertex="1" parent="1">
          <mxGeometry x="-288.5" y="-302" width="50" height="38" as="geometry" />
        </mxCell>
        <mxCell id="iplyKtOMqLFqcfngAsZ6-28" value="Throw Exception" style="shape=parallelogram;perimeter=parallelogramPerimeter;whiteSpace=wrap;html=1;dashed=0;fontFamily=Times New Roman;fontSize=22;" vertex="1" parent="1">
          <mxGeometry x="-46" y="-371.5" width="231" height="51" as="geometry" />
        </mxCell>
        <mxCell id="iplyKtOMqLFqcfngAsZ6-30" value="&lt;font face=&quot;Times New Roman&quot;&gt;&lt;span style=&quot;font-size: 22px;&quot;&gt;No&lt;/span&gt;&lt;/font&gt;" style="text;html=1;align=center;verticalAlign=middle;resizable=0;points=[];autosize=1;strokeColor=none;fillColor=none;" vertex="1" parent="1">
          <mxGeometry x="-91" y="-377" width="45" height="38" as="geometry" />
        </mxCell>
        <mxCell id="KP4_aEdoyNH2rMj2E8eM-3" value="&lt;font face=&quot;Times New Roman&quot; style=&quot;font-size: 60px;&quot;&gt;Main Program&lt;/font&gt;" style="text;html=1;align=center;verticalAlign=middle;resizable=0;points=[];autosize=1;strokeColor=none;fillColor=none;" vertex="1" parent="1">
          <mxGeometry x="-468" y="-845" width="366" height="84" as="geometry" />
        </mxCell>
        <mxCell id="KP4_aEdoyNH2rMj2E8eM-4" value="&lt;font face=&quot;Times New Roman&quot; style=&quot;font-size: 60px;&quot;&gt;Instruction Decoding&lt;/font&gt;" style="text;html=1;align=center;verticalAlign=middle;resizable=0;points=[];autosize=1;strokeColor=none;fillColor=none;" vertex="1" parent="1">
          <mxGeometry x="297.5" y="-845" width="526" height="84" as="geometry" />
        </mxCell>
        <mxCell id="KP4_aEdoyNH2rMj2E8eM-14" value="" style="edgeStyle=orthogonalEdgeStyle;rounded=0;orthogonalLoop=1;jettySize=auto;html=1;" edge="1" parent="1" source="KP4_aEdoyNH2rMj2E8eM-6" target="KP4_aEdoyNH2rMj2E8eM-7">
          <mxGeometry relative="1" as="geometry" />
        </mxCell>
        <mxCell id="KP4_aEdoyNH2rMj2E8eM-26" value="" style="edgeStyle=orthogonalEdgeStyle;rounded=0;orthogonalLoop=1;jettySize=auto;html=1;" edge="1" parent="1" source="KP4_aEdoyNH2rMj2E8eM-6" target="KP4_aEdoyNH2rMj2E8eM-10">
          <mxGeometry relative="1" as="geometry" />
        </mxCell>
        <mxCell id="KP4_aEdoyNH2rMj2E8eM-6" value="More Arguments to Validate?" style="strokeWidth=2;html=1;shape=mxgraph.flowchart.decision;whiteSpace=wrap;fontFamily=Times New Roman;fontSize=22;" vertex="1" parent="1">
          <mxGeometry x="367" y="-155" width="387" height="94" as="geometry" />
        </mxCell>
        <mxCell id="KP4_aEdoyNH2rMj2E8eM-15" value="" style="edgeStyle=orthogonalEdgeStyle;rounded=0;orthogonalLoop=1;jettySize=auto;html=1;" edge="1" parent="1" source="KP4_aEdoyNH2rMj2E8eM-7" target="KP4_aEdoyNH2rMj2E8eM-8">
          <mxGeometry relative="1" as="geometry" />
        </mxCell>
        <mxCell id="KP4_aEdoyNH2rMj2E8eM-16" style="edgeStyle=orthogonalEdgeStyle;rounded=0;orthogonalLoop=1;jettySize=auto;html=1;exitX=1;exitY=0.5;exitDx=0;exitDy=0;exitPerimeter=0;entryX=0;entryY=0.25;entryDx=0;entryDy=0;" edge="1" parent="1" source="KP4_aEdoyNH2rMj2E8eM-7" target="KP4_aEdoyNH2rMj2E8eM-11">
          <mxGeometry relative="1" as="geometry" />
        </mxCell>
        <mxCell id="KP4_aEdoyNH2rMj2E8eM-7" value="User Argument X valid &lt;br&gt;for Expected Argument X&amp;nbsp;" style="strokeWidth=2;html=1;shape=mxgraph.flowchart.decision;whiteSpace=wrap;fontFamily=Times New Roman;fontSize=22;" vertex="1" parent="1">
          <mxGeometry x="332.5" y="-2" width="456" height="94" as="geometry" />
        </mxCell>
        <mxCell id="KP4_aEdoyNH2rMj2E8eM-17" style="edgeStyle=elbowEdgeStyle;rounded=0;orthogonalLoop=1;jettySize=auto;html=1;exitX=0;exitY=0.5;exitDx=0;exitDy=0;entryX=0;entryY=0.5;entryDx=0;entryDy=0;" edge="1" parent="1" source="KP4_aEdoyNH2rMj2E8eM-8" target="KP4_aEdoyNH2rMj2E8eM-21">
          <mxGeometry relative="1" as="geometry">
            <mxPoint x="560.5" y="-239" as="targetPoint" />
            <Array as="points">
              <mxPoint x="224" y="-21" />
            </Array>
          </mxGeometry>
        </mxCell>
        <mxCell id="KP4_aEdoyNH2rMj2E8eM-8" value="DecodedInstruction += expectedArgument.convertToBin(user argument X)&amp;nbsp;" style="html=1;dashed=0;whiteSpace=wrap;fontFamily=Times New Roman;fontSize=22;" vertex="1" parent="1">
          <mxGeometry x="321.63" y="153" width="477.75" height="50" as="geometry" />
        </mxCell>
        <mxCell id="KP4_aEdoyNH2rMj2E8eM-10" value="End" style="strokeWidth=2;html=1;shape=mxgraph.flowchart.terminator;whiteSpace=wrap;fontFamily=Times New Roman;fontSize=22;" vertex="1" parent="1">
          <mxGeometry x="1082.5" y="-138" width="100" height="60" as="geometry" />
        </mxCell>
        <mxCell id="KP4_aEdoyNH2rMj2E8eM-11" value="Throw Exception" style="shape=parallelogram;perimeter=parallelogramPerimeter;whiteSpace=wrap;html=1;dashed=0;fontFamily=Times New Roman;fontSize=22;" vertex="1" parent="1">
          <mxGeometry x="1017" y="28" width="231" height="51" as="geometry" />
        </mxCell>
        <mxCell id="KP4_aEdoyNH2rMj2E8eM-12" value="Throw Exception" style="shape=parallelogram;perimeter=parallelogramPerimeter;whiteSpace=wrap;html=1;dashed=0;fontFamily=Times New Roman;fontSize=22;" vertex="1" parent="1">
          <mxGeometry x="1017" y="-444" width="231" height="51" as="geometry" />
        </mxCell>
        <mxCell id="KP4_aEdoyNH2rMj2E8eM-20" value="" style="edgeStyle=elbowEdgeStyle;rounded=0;orthogonalLoop=1;jettySize=auto;html=1;entryX=0.5;entryY=0;entryDx=0;entryDy=0;" edge="1" parent="1" source="iplyKtOMqLFqcfngAsZ6-24" target="KP4_aEdoyNH2rMj2E8eM-21">
          <mxGeometry relative="1" as="geometry">
            <mxPoint x="561" y="-264" as="sourcePoint" />
            <mxPoint x="560.5" y="-239" as="targetPoint" />
          </mxGeometry>
        </mxCell>
        <mxCell id="KP4_aEdoyNH2rMj2E8eM-25" value="" style="edgeStyle=orthogonalEdgeStyle;rounded=0;orthogonalLoop=1;jettySize=auto;html=1;" edge="1" parent="1" source="KP4_aEdoyNH2rMj2E8eM-21" target="KP4_aEdoyNH2rMj2E8eM-6">
          <mxGeometry relative="1" as="geometry" />
        </mxCell>
        <mxCell id="KP4_aEdoyNH2rMj2E8eM-21" value="" style="shape=rhombus;html=1;verticalLabelPosition=top;verticalAlignment=bottom;" vertex="1" parent="1">
          <mxGeometry x="540.5" y="-235" width="40" height="40" as="geometry" />
        </mxCell>
        <mxCell id="KP4_aEdoyNH2rMj2E8eM-27" value="&lt;font face=&quot;Times New Roman&quot;&gt;&lt;span style=&quot;font-size: 22px;&quot;&gt;No&lt;/span&gt;&lt;/font&gt;" style="text;html=1;align=center;verticalAlign=middle;resizable=0;points=[];autosize=1;strokeColor=none;fillColor=none;" vertex="1" parent="1">
          <mxGeometry x="875" y="-452" width="45" height="38" as="geometry" />
        </mxCell>
        <mxCell id="KP4_aEdoyNH2rMj2E8eM-28" value="&lt;font face=&quot;Times New Roman&quot;&gt;&lt;span style=&quot;font-size: 22px;&quot;&gt;No&lt;/span&gt;&lt;/font&gt;" style="text;html=1;align=center;verticalAlign=middle;resizable=0;points=[];autosize=1;strokeColor=none;fillColor=none;" vertex="1" parent="1">
          <mxGeometry x="896" y="-140" width="45" height="38" as="geometry" />
        </mxCell>
        <mxCell id="KP4_aEdoyNH2rMj2E8eM-29" value="&lt;font style=&quot;font-size: 22px;&quot; face=&quot;Times New Roman&quot;&gt;Yes&lt;/font&gt;" style="text;html=1;align=center;verticalAlign=middle;resizable=0;points=[];autosize=1;strokeColor=none;fillColor=none;" vertex="1" parent="1">
          <mxGeometry x="560.5" y="-55" width="50" height="38" as="geometry" />
        </mxCell>
        <mxCell id="KP4_aEdoyNH2rMj2E8eM-30" value="&lt;font style=&quot;font-size: 22px;&quot; face=&quot;Times New Roman&quot;&gt;Yes&lt;/font&gt;" style="text;html=1;align=center;verticalAlign=middle;resizable=0;points=[];autosize=1;strokeColor=none;fillColor=none;" vertex="1" parent="1">
          <mxGeometry x="560.5" y="96" width="50" height="38" as="geometry" />
        </mxCell>
        <mxCell id="KP4_aEdoyNH2rMj2E8eM-31" value="&lt;font face=&quot;Times New Roman&quot;&gt;&lt;span style=&quot;font-size: 22px;&quot;&gt;No&lt;/span&gt;&lt;/font&gt;" style="text;html=1;align=center;verticalAlign=middle;resizable=0;points=[];autosize=1;strokeColor=none;fillColor=none;" vertex="1" parent="1">
          <mxGeometry x="880" y="13" width="45" height="38" as="geometry" />
        </mxCell>
      </root>
    </mxGraphModel>
  </diagram>
</mxfile>
